<svg xmlns="http://www.w3.org/2000/svg" version="1.1" xmlns:xlink="http://www.w3.org/1999/xlink" xmlns:svgjs="http://svgjs.dev/svgjs" width="2000" height="2000"><svg id="SvgjsSvg1010" xmlns="http://www.w3.org/2000/svg" version="1.1" viewBox="0 0 2000 2000">
  <!-- Generator: Adobe Illustrator 29.3.0, SVG Export Plug-In . SVG Version: 2.1.0 Build 20)  -->
  <defs>
    <style>
      .st0 {
        fill: #fff;
      }

      .st1 {
        fill: #e21500;
      }

      .st2 {
        fill: #333;
      }

      .st3 {
        fill: #bab8c1;
      }

      .st4 {
        fill: #1d1d1b;
      }

      .st5 {
        fill: #ffefe2;
      }
    </style>
  </defs>
  <path class="st4" d="M1665.4,852.3c-.3-9.8-1-19.6-2-29.3-.7-6.9-.6-13.8-2.5-20.1-1-3.4-2.5-6.6-5-9.5-4.5-5.4-71.9-42-78.9-42-3.1,0-6.1.8-8.8,2.3-.1,0-.3.2-.4.2h0s0,0,0,0c-21.8,12.8-49.1,20.1-74.9,20.1s-6.5-.1-9.7-.4c-20.9-27.2-26.6-63.5-14.3-95.9,2.9-7.6,1.9-16.3-2.7-23.1-7.1-10.4-20.8-13.4-31.6-18.1-8.7-3.8-17.1-8.2-25.4-12.9-7.4-4.3-14.9-11.1-23.9-11.1s-4.7.4-6.9,1.3c-11.9,4.5-24.3,6.8-37,6.8s-8.8-.3-13.2-.8c-26.5-28.3-34.3-69.2-19.8-105.1h0c0,0,0-.1,0-.1,3.6-9,1.5-19.3-5.3-26.1-3.5-3.5-69.1-36.3-69.6-36.4-2.3-1-4.8-1.6-7.4-1.6s-4.7.5-6.9,1.4c-12.6,5.1-25.8,7.6-39.3,7.6s-8.6-.3-12.9-.8c-15.3-16.3-24.8-37.4-26.7-59.7-2-23,4.1-46.1,17.2-64.8,5.3-7.6,6.4-17.3,2.8-25.9h0s0,0,0,0c-3.3-8.3-10.9-11.8-18.2-16.1-8-4.7-16.3-9.1-24.6-13.1-23.7-11.4-48.4-21.1-74.7-23.7-20.6-2.1-41.5-3.2-62.2-3.5-3.6,0-7.6,0-11.9,0s-8.3,0-11.9,0c-13.6.2-27.3.9-40.7,2-14.5,1.2-29.1,2.8-43.2,4.9-11.7,1.7-23.5,3.9-35,6.3-5.6,1.2-11.2,2.4-16.6,3.7-6.3,1.5-12.8,3.1-19.1,4.9l-.9.3h0s0,0,0,0c-10.1,2.8-20.3,5.8-30.2,9.1-12.6,4.2-25.2,8.8-37.5,13.8-9.5,3.9-18.9,8-28,12.2-11,5.2-21.9,10.6-32.3,16.3-41.1,22.2-79.7,49.4-114.9,80.7-79.1,70.5-139.7,161.1-175.1,262.1-.8,2.2-1.6,4.5-2.3,6.5-.8,2.5-1.7,5-2.5,7.6-26.3,81-35.7,164.4-28,247.9.3,2.8.5,5.6.8,8.4,1.2,11.1,2.7,22.3,4.5,33.2,13.8,84.9,45.2,165.5,93.5,239.8l16,24.6c1.6,2.5,3.3,5,4.9,7.6,4.6,7.1,9.2,14.2,13.8,21.3,7.1,10.9,14.2,21.9,21.4,32.8,9.2,14.1,18.3,28.2,27.5,42.3,10.8,16.5,21.5,33.1,32.3,49.6,11.9,18.3,23.8,36.6,35.6,54.8,12.5,19.3,25.1,38.6,37.6,57.9,12.8,19.6,25.5,39.2,38.3,58.9,12.5,19.2,25,38.5,37.5,57.7,11.8,18.1,23.6,36.3,35.4,54.4,10.6,16.3,21.2,32.7,31.8,49,9,13.8,18,27.6,26.9,41.4,23.3,35.9,46.2,72.5,76.4,103.2,20.1,20.5,44,35.3,70.2,46.3,29.5,12.4,57.7,20.4,90.1,16.8,45.5-5.1,86.7-29.9,111.6-68.3l37.8-58.1,14.4-22.1,3.1-4.7c18.1-27.8,36.7-56,54.8-83.3,43.4-65.5,88.2-133.2,129-201.7,21.8-36.6,46-72.6,69.4-107.5,35.3-52.6,71.9-106.9,101.8-165.5,25.4-49.7,46.3-98.7,62-145.7,18.7-55.8,30.5-109.4,34.9-159.3,1.8-20.4,2.4-40.8,1.7-61.3Z"></path>
  <path class="st4" d="M1566.7,826.6s0,0-.1,0c0,0,0,0,.1,0Z"></path>
  <path class="st1" d="M1584,874.8c-5.7,115.9-47.2,231.6-109.5,327.3,0,0-358.9,552.1-358.9,552.1l-37.8,58.1c-22.6,34.8-59.3,56.3-100.6,58.9-2.2.1-4.4.2-6.5.3-15.1.2-29.8-2-43.7-6.7-.5-.2-1.1-.4-1.6-.6-1.6-.6-3.2-1.2-4.9-1.8-.5-.2-1.1-.4-1.6-.6-1.1-.4-2.1-.9-3.2-1.4-2.1-.9-4.2-1.9-6.2-3-1-.5-2-1.1-3.1-1.6-2-1.1-4-2.3-6-3.5-1.5-.9-2.9-1.9-4.4-2.8-1.4-1-2.9-2-4.3-3-.9-.7-1.9-1.4-2.8-2.1-.5-.4-.9-.7-1.4-1.1-.9-.7-1.8-1.5-2.7-2.2-.4-.4-.9-.8-1.3-1.1-1.8-1.5-3.5-3.1-5.2-4.8-.4-.4-.8-.8-1.3-1.2-2.5-2.5-4.9-5.1-7.3-7.8-3.7-4.4-7.2-9.1-10.4-13.9l-396.7-610.2c-47-72.3-77.6-150.9-91-233.5-1.7-10.6-3.2-21.5-4.3-32.2-8.9-84,0-168,26.4-249.5.8-2.5,1.6-4.9,2.4-7.4.7-2.1,1.4-4.2,2.2-6.3,34.5-98.4,93.5-186.6,170.5-255.3,34.2-30.5,71.8-56.9,111.8-78.5,10.2-5.5,20.8-10.8,31.4-15.8,8.9-4.2,18.1-8.1,27.2-11.9,11.9-4.8,24.2-9.4,36.5-13.4,9.7-3.2,19.5-6.2,29.4-8.9l1-.3c6.1-1.7,12.3-3.3,18.6-4.7,5.4-1.3,10.8-2.5,16.2-3.6,11.2-2.4,22.7-4.4,34.1-6.1,13.8-2.1,28-3.7,42.1-4.8,13-1,26.3-1.7,39.6-1.9,3.7,0,7.6,0,11.6,0s7.9,0,11.6,0c32.3.5,64.6,3.6,95.9,9,2.3.4,3.2,2.1,3.5,2.8.3.7.9,2.6-.5,4.5-16.1,23-23.6,51.3-21.2,79.6,2.5,28.6,15,55.5,35.4,75.9,34.7,34.8,86.5,45.4,131.8,27.1.8-.3,1.4-.2,2,.4.6.6.7,1.2.4,2-18.3,45.3-7.7,97,27.1,131.8,34,34,84.8,45,129.5,28,1.5-.6,2.6.2,3.1.7.5.5,1.3,1.6.7,3.1-17,44.7-6,95.5,28,129.5,39.3,39.3,112.5,33.6,160.1,5.7,0,0,0,0,.1,0,1-.6,2.4,0,2.5,1.2,0,0,0,0,0,0,5.4,34.8,7,70.2,5.2,105.6Z"></path>
  <g>
    <path class="st5" d="M1235.6,1191.4c-11.4,24.2-26.1,47-44.8,66.3-58.2,60.3-151,80-232.7,61.1-17-3.9-33.5-9.3-49.5-16-60.9-25.5-114.1-69.5-155.9-121.1-13.4-16.5-26-34.1-33.5-54-9-23.7-10.1-50.3-3.8-74.8,2.6-10.1,6.5-19.9,11.7-29,17.6-31.2,43.1-52.7,78.4-59.2h0c3.2,2.7,6.5,5.2,9.9,7.7,18.8,13.9,42.7,25.8,64.8,18.3,14.5-4.9,25.4-17.7,30.9-32,5.5-14.3,6.2-30,5.3-45.3-2.5-39.8-15.5-77.7-31.5-114.5,45.7-27.7,92.7-55.9,145.2-66,31-6,64.6-4.4,94.1,6.3,20.7,7.5,39.3,19.5,53.5,36.5,18.2,21.8,27.6,49.7,31.4,77.9,3.8,28.1,1.7,57.7.1,86,23.6,25.9,40,58.5,47.4,92.8,11.5,53.3,2.2,109.9-21,159.3Z"></path>
    <path class="st4" d="M1019,1333.6c-21,0-42.1-2.4-62.7-7.1-17-3.9-34.1-9.5-50.8-16.4-58.2-24.3-113.2-67-159-123.4-12.5-15.4-26.4-34-34.7-56.2-9.4-24.9-10.8-53.2-4-79.5,2.8-10.9,7-21.3,12.4-30.9,19.8-35.2,48-56.4,83.8-63l1-.2,3.5.3,1.9,1.6c3.1,2.5,6.3,5,9.5,7.5,22.5,16.7,41.9,22.5,57.6,17.1,11.2-3.8,21-14.1,26.1-27.5,4.3-11.2,5.9-24.6,4.8-42-2.6-42.4-17.9-82-30.9-111.9l-2.7-6.3,5.9-3.6c43.6-26.5,93-56.5,147.8-67,33.7-6.5,68.6-4.1,98.2,6.6,23.2,8.4,42.4,21.5,56.9,38.8,17.5,21,28.6,48.5,33.1,81.8,3.6,26.6,2,54.2.6,80.8,0,1.1-.1,2.3-.2,3.4,23.2,26.4,39.5,58.8,47.1,94,11.3,52.4,3.6,110.7-21.6,164.3h0c-12.5,26.6-28,49.6-46.2,68.4-28.9,29.9-67.4,51.5-111.3,62.4-21.5,5.4-43.8,8-66.1,8ZM803.4,973.1c-29.3,6.4-52.7,24.8-69.5,54.6-4.7,8.4-8.4,17.6-10.9,27.2-6,23.3-4.8,48.2,3.5,70.1,7.6,20,20.5,37.4,32.2,51.8,44.1,54.4,97,95.5,152.9,118.8,15.8,6.6,32.1,11.9,48.2,15.6,83.7,19.3,172.1-3.8,225.3-59,17-17.6,31.5-39.2,43.3-64.2,23.7-50.5,31-105.3,20.4-154.3-7.1-33.1-23.3-64.8-45.5-89.2l-2.2-2.4.2-3.3c.1-2.2.2-4.4.4-6.7,1.4-25.9,2.9-52.7-.4-77.8-4.1-30.3-14-55.2-29.6-73.9-12.7-15.2-29.6-26.7-50.2-34.2-27-9.8-58.9-11.9-89.9-5.9-49.6,9.6-95.8,36.6-136.8,61.5,12.8,30.2,26.9,69,29.4,110.9,1.2,19.8-.6,35.2-5.8,48.6-6.8,17.6-20.2,31.3-35.7,36.6-20.9,7.1-45.1.6-72-19.4-2.5-1.8-4.9-3.7-7.3-5.6Z"></path>
  </g>
  <path class="st0" d="M715.5,1052.9s0,0,0,0"></path>
  <g>
    <path class="st3" d="M687.9,550.6c-20.8-33.2-39-66.4-75.1-80-28.4-10.8-52-12.1-81.5-19.6-35.4-9-65.7-32.5-89.1-60.4-23.5-27.9-87.5-154.3-97.1-185.3-4.1-13.1.3-25,10.7-27.2,7.2-1.5,14.8,1.8,20.1,6.9,5.1,4.9,8.4,13.5,11.7,19.5,7.6,13.7,15,27.5,22.3,41.3,16.9,31.9,33.2,64.2,50.4,95.9s13.9,23,24.9,30.8c5.2,3.6,11.3,6.5,17.6,5.7,7.1-.9,13.2-6.8,14.4-13.8.7-4.4-.3-8.9-1.7-13.1-5.4-16.1-16-29.1-25.5-42.9-9.6-14-18.7-28.4-27.5-42.9-17.3-28.7-33.4-58.3-47.5-88.7-2.7-5.9-5.4-11.9-6-18.3-.6-6.4,1.3-13.5,6.4-17.5,6.6-5.3,16.7-3.9,23.6,1,6.9,4.8,11.4,12.3,15.7,19.6,33.7,56.9,64.5,107.4,98.2,164.3,3.3,5.6,6.8,11.4,11.9,15.4,5.2,4,12.5,5.9,18.3,2.9,6.2-3.2,8.9-11,8.1-17.9-.8-6.9-4.3-13.2-7.8-19.3-32.5-57-87.6-149.7-93.4-161.4-5.9-11.7-10.7-27.2,2.6-35s23.5,1.2,27.3,7.1c39.7,61.8,65.3,116.6,108.4,174.8,6.6,9,16.8,19.1,27.2,14.9,6.5-2.6,9.7-10.4,9.3-17.4-.5-7-3.6-13.6-7.2-19.7-34.9-58.1-99.9-156.2-103.8-164-5.1-11.1-2.8-21.5,4.7-26.4s15.6-4.3,21.2-.7c5.6,3.6,9.6,9,13.5,14.4,53.7,74.4,119.9,148,114.2,245.8-1.7,28.7-12.6,54-18,81.9-7.5,39.1,5.9,74.5,27.7,106.7"></path>
    <path class="st4" d="M681.3,554.7c-1.6-2.5-3.1-5.1-4.7-7.6-18.3-29.6-35.7-57.6-66.5-69.3-17.2-6.5-32.7-9.5-49.1-12.6-10-1.9-20.3-3.9-31.5-6.7-33.6-8.6-65.8-30.3-93.2-63-24.6-29.3-88.7-156.3-98.6-188-3-9.7-2.3-19.3,1.9-26.5,3.3-5.5,8.5-9.3,14.7-10.6,9.1-1.9,19.2,1.4,27.1,8.9,4.7,4.5,7.8,10.8,10.6,16.4.9,1.8,1.7,3.5,2.6,5,7.3,13.2,14.2,26.1,22.4,41.5,6.8,12.9,13.7,26,20.3,38.7,9.8,18.8,19.8,38.2,30.1,57,5.4,9.8,12.3,20.9,22.5,28.2,3.2,2.3,7.9,4.8,12.1,4.3,3.6-.5,7-3.7,7.6-7.3.4-2.3,0-5.2-1.4-9.3-4-12-11.3-22.3-19.1-33.2-1.8-2.5-3.6-5.1-5.4-7.7-8.7-12.7-17.5-26.4-27.7-43.3-18.7-31-34.4-60.2-47.9-89.5-2.5-5.4-6-12.9-6.7-20.9-.9-9.9,2.6-19,9.3-24.3,8.8-7,22.4-6.8,33,.7,8.5,5.9,13.8,14.9,18,22.1,16.8,28.4,33.2,55.7,49.1,82.1,15.9,26.4,32.3,53.7,49.1,82.2,2.9,4.9,5.9,10,10,13.2,3.2,2.5,7.4,3.4,9.9,2.1,2.7-1.4,4.3-5.7,3.8-10.1-.6-5.5-3.8-11-6.8-16.3-15.6-27.3-36.2-62.6-54.4-93.7-20.2-34.5-36.1-61.8-39.3-68.1-4.2-8.4-6.4-15.7-6.7-22.1-.4-10.2,3.8-18.2,12.4-23.1,15.8-9.2,30.7-1.5,37.8,9.6,15.7,24.5,29.3,48,42.5,70.7,20.5,35.4,39.8,68.8,65.6,103.7,2.6,3.5,11.6,14.8,17.9,12.3,2.8-1.1,4.7-5.4,4.4-9.7-.3-4.6-2.2-9.7-6.1-16.1-20.9-34.9-52.6-83.9-75.7-119.7-18-27.9-26.7-41.5-28.4-44.8v-.2c-6.8-14.4-3.7-29,7.5-36.3,9.4-6.1,20.8-6.4,29.7-.8,6.9,4.4,11.7,11.1,15.6,16.4,6.8,9.4,13.9,19,20.8,28.2,49.2,66,100,134.3,94.8,222.6-1.1,18.6-5.9,35.8-10.5,52.5-2.8,9.9-5.6,20.1-7.6,30.4-6.2,32.3,2.4,65.3,26.5,100.8l-13,8.8c-26.5-39.1-36-75.9-28.9-112.5,2.1-10.9,5-21.4,7.9-31.6,4.6-16.6,9-32.2,10-49.2,4.9-82.6-44.2-148.6-91.7-212.4-6.9-9.3-14.1-18.9-21-28.4-3.4-4.7-6.9-9.6-11.3-12.4-1.4-.9-6.4-3.5-12.7.7-4.4,2.9-5.2,9.3-1.9,16.4,1.6,3.1,14.2,22.6,27.5,43.3,23.2,35.9,54.9,85.1,76,120.2,3.3,5.4,7.6,13.7,8.3,23.2.7,11.2-5.1,21.6-14.1,25.2-8.2,3.4-21.3,3.1-36.4-17.5-26.3-35.6-45.9-69.4-66.6-105.1-13.1-22.6-26.6-45.9-42.1-70.1-1.6-2.4-7.4-10-16.7-4.5-2.5,1.5-9.3,5.4.4,24.7,3,5.9,19.6,34.3,38.8,67.2,18.2,31.2,38.8,66.5,54.4,93.8,3.5,6.1,7.8,13.6,8.8,22.3,1.1,9.2-2.3,20.7-12.3,25.8-8,4.1-18.5,2.7-26.7-3.7-6.4-5-10.4-11.7-13.9-17.6-16.8-28.5-33.2-55.7-49.1-82.1-15.9-26.4-32.3-53.7-49.1-82.2-3.8-6.5-7.8-13.2-13.5-17.2-4.2-2.9-10.6-4.2-14.3-1.3-2.5,2-3.9,6.2-3.5,10.7.5,5,2.6,9.9,5.3,15.8,13.3,28.7,28.7,57.5,47.1,87.9,10,16.6,18.7,30.1,27.2,42.5,1.7,2.5,3.5,5.1,5.3,7.5,8.1,11.4,16.4,23.1,21.2,37.3,1.5,4.5,3.1,10.4,2,16.8-1.7,10.5-10.6,19-21.1,20.3-7.4.9-15.2-1.4-23.1-7-13-9.2-21.4-22.7-27.2-33.4-10.4-19-20.5-38.5-30.3-57.3-6.6-12.7-13.4-25.8-20.2-38.6-8.2-15.3-15-28.1-22.2-41.2-1-1.8-2-3.8-2.9-5.7-2.2-4.4-4.6-9.4-7.3-12-3.2-3-8.3-5.9-13.1-4.9-1.9.4-3.3,1.5-4.4,3.2-2,3.3-2.1,8.6-.4,13.9,9.2,29.4,72.2,154.7,95.6,182.6,17.6,21,46.7,48.1,85,57.9,10.7,2.7,20.8,4.7,30.6,6.5,17.1,3.3,33.3,6.4,51.7,13.3,35.9,13.6,55.4,45.1,74.3,75.7,1.5,2.5,3.1,5,4.7,7.5l-13.3,8.3Z"></path>
  </g>
  <g>
    <path class="st2" d="M630.4,1225.6c-42.4,11.4-79.4,16-125.2,13.3-3.3-.2-6.6-.4-9.9-.7-7-.6-14-1.3-21-2.2l-16-24.6c-48.3-74.2-79.7-154.9-93.5-239.8-1.8-10.9-3.3-22-4.5-33.2-.3-2.8-.6-5.6-.8-8.4,5.9,5.9,12,11.6,18.4,17.1,11.5,10,23.6,19.2,36.3,27.7,39.5,26.2,75,43.8,121.9,50,1.4,19.3,6.7,38.6,12.9,57.1,17.7,52.4,44.5,102.7,81.3,143.6Z"></path>
    <path class="st4" d="M529.8,1247.5c-8.2,0-16.5-.3-25.1-.8-3.3-.2-6.7-.4-10.1-.7-7.2-.6-14.4-1.3-21.4-2.2l-3.6-.5-17.9-27.6c-48.8-75.1-80.7-156.8-94.6-242.8-1.8-10.9-3.3-22.2-4.5-33.6-.3-2.8-.6-5.7-.8-8.5l-2-21.5,15.3,15.2c5.8,5.7,11.8,11.4,18,16.7,11.3,9.8,23.3,18.9,35.5,27,37.4,24.8,71.9,42.6,118.6,48.8l6.3.8.5,6.4c1.2,15.9,5.2,33.4,12.5,55.2,18.5,54.7,46,103.4,79.7,140.9l8.5,9.5-12.3,3.3c-36.4,9.8-68.3,14.3-102.6,14.3ZM478.9,1228.7c5.6.7,11.3,1.3,17.1,1.7,3.2.3,6.5.5,9.7.7,39.2,2.3,72-.6,110.6-9.9-31.3-37.6-57-84.5-74.6-136.7-6.8-20.3-10.9-37.2-12.7-52.7-49.5-7.8-86.5-28.7-119-50.4-12.8-8.5-25.3-18-37.1-28.3-1-.9-2.1-1.8-3.1-2.7.9,6.8,1.8,13.5,2.9,20,13.6,83.8,44.6,163.5,92.3,236.8l14,21.5Z"></path>
  </g>
  <g>
    <path class="st5" d="M908.6,1302.8c-72.1,34.7-156.6,16-222.9-28.7-20.5-13.8-38.9-30.2-55.3-48.4-36.8-40.9-63.7-91.2-81.3-143.6-6.2-18.5-11.4-37.8-12.9-57.1-.9-11.7-.4-23.3,2-34.8,6.5-30.5,34.8-58.9,65.9-62.3,7.9,18.6,19.2,35.9,32.2,51.4,20.6,24.5,54.5,53.3,79.1,73.8-6.3,24.5-5.2,51.1,3.8,74.8,7.5,19.9,20.1,37.5,33.5,54,41.9,51.6,95,95.6,155.9,121.1Z"></path>
    <path class="st4" d="M828.2,1328.7c-11.2,0-22.7-.9-34.4-2.7-38.3-5.9-77.2-21.6-112.5-45.4-20.3-13.7-39.4-30.4-56.8-49.7-35.1-39-63.8-89.6-82.9-146.4-7.8-23-12-41.8-13.3-59-1-13-.3-25.5,2.2-37,7.4-34.7,39.3-64.8,72.7-68.5l5.8-.6,2.3,5.4c7,16.6,17.5,33.3,31,49.4,21.5,25.7,59.8,57.5,78.1,72.8l3.8,3.2-1.2,4.8c-6,23.3-4.8,48.2,3.5,70.1,7.6,20,20.5,37.4,32.2,51.8,44.1,54.4,97,95.5,152.9,118.8l16.1,6.7-15.7,7.6c-26,12.5-54.1,18.8-83.8,18.8ZM599.4,936.5c-24.6,5.5-48,29.2-53.5,55.3-2.2,10.2-2.8,20.8-1.9,32.5,1.2,15.9,5.2,33.5,12.5,55.2,18.5,54.8,46.1,103.5,79.7,140.9,16.5,18.3,34.6,34.2,53.9,47.2,65.3,44.1,138.3,56.6,198.8,35-52-25.2-101-64.9-142.3-115.9-12.5-15.4-26.4-34-34.7-56.2-8.8-23.4-10.6-49.7-5.2-74.7-27.5-23-57.5-49.1-76.4-71.6-13-15.5-23.4-31.5-30.9-47.7Z"></path>
  </g>
  <g>
    <path class="st5" d="M911.1,958.6c-5.5,14.3-16.4,27.1-30.9,32-22.1,7.5-46.1-4.3-64.8-18.3-3.4-2.5-6.6-5.1-9.9-7.7h0c-35.3,6.5-60.8,27.9-78.4,59.2-5.1,9.1-9,18.9-11.7,29-24.6-20.5-58.6-49.2-79.1-73.8-13-15.5-24.4-32.8-32.2-51.4-4.6-10.8-8-22-9.9-33.7-4-24.8-1-50.4,6.3-74.4,14.9-48.5,48.3-91,91.5-117.4,4.2-2.6,8.5-5,12.8-7.2,18.8-9.7,39.3-16.5,60.5-17.3,8.3-.3,16.7.4,24.8,2.1,12.6,2.7,24.6,7.9,34.7,15.8,18,14.2,28.5,35.6,38.4,56.3,7.4,15.4,14.8,31,21.7,46.8,16,36.8,29,74.7,31.5,114.5.9,15.3.2,31-5.3,45.3Z"></path>
    <path class="st4" d="M719.9,1066.8l-9.5-7.9c-28.5-23.7-60.3-51.2-80.1-74.7-14.5-17.3-25.8-35.3-33.4-53.3-5-11.7-8.5-23.7-10.4-35.4-4-24.5-1.8-50.7,6.6-78,15.4-50,50-94.4,95-121.8,4.4-2.7,8.9-5.2,13.3-7.5,21.9-11.3,43.4-17.4,63.7-18.2,9.1-.3,18.1.4,26.7,2.3,14.4,3.1,27.2,8.9,37.9,17.3,19.8,15.6,30.9,38.7,40.6,59.1,6.5,13.6,14.6,30.5,21.8,47,13.5,31,29.4,72.4,32.1,117.2,1.2,19.8-.6,35.2-5.8,48.6-6.8,17.6-20.2,31.3-35.7,36.6-20.9,7.1-45.1.6-72-19.4-2.5-1.8-4.9-3.7-7.3-5.6-29.3,6.4-52.7,24.8-69.5,54.6-4.7,8.4-8.4,17.6-10.9,27.2l-3.1,12ZM769.3,685.6c-1.2,0-2.4,0-3.6,0-18,.7-37.3,6.2-57.2,16.5-4.1,2.1-8.2,4.4-12.3,6.9-41.8,25.5-73.9,66.7-88.1,113-7.7,24.9-9.7,48.7-6.1,70.8,1.7,10.5,4.9,21.3,9.4,31.9,7,16.6,17.5,33.3,31,49.4,18.5,22,49.1,48.5,69.1,65.2,2.4-6.7,5.4-13.2,8.8-19.3,19.8-35.2,48-56.4,83.8-63l1-.2,3.5.3,1.9,1.6c3.1,2.5,6.3,5,9.5,7.5,22.5,16.7,41.9,22.5,57.6,17.1,11.2-3.8,21-14.1,26.1-27.5h0c4.3-11.2,5.9-24.6,4.8-42-2.6-42.4-17.9-82-30.9-111.9-7.1-16.3-15.1-33-21.6-46.5-9-18.8-19.3-40.2-36.2-53.5-8.8-6.9-19.4-11.7-31.4-14.3-6.2-1.3-12.7-2-19.2-2Z"></path>
  </g>
  <g>
    <path class="st5" d="M1124.2,739c-29.4-10.7-63.1-12.2-94.1-6.3-52.5,10.1-99.5,38.3-145.2,66-6.9-15.8-14.3-31.3-21.7-46.8-9.9-20.7-20.4-42.1-38.4-56.3-10.1-8-22.1-13.1-34.7-15.8,25.7-32.5,57.7-60.2,94.7-78,8.7-4.2,17.8-7.8,27.1-10.8,48.7-15.8,104.7-12.4,148.1,14.8,43.4,27.2,71.6,82.5,64.2,133.2Z"></path>
    <path class="st4" d="M881.3,810.1l-3.6-8.2c-7.1-16.3-15.1-33-21.6-46.5-9-18.8-19.3-40.2-36.2-53.5-8.8-6.9-19.4-11.7-31.4-14.3l-12.4-2.6,7.8-9.9c27.9-35.3,61.6-63,97.5-80.2,9.2-4.4,18.6-8.2,28-11.2,53.6-17.3,111.4-11.5,154.6,15.6,22.5,14.1,41.7,35.7,54,61,12.7,25.8,17.5,54.2,13.7,80l-1.4,9.5-9-3.3c-27-9.8-58.9-11.9-89.9-5.9-52,10-100.2,39.2-142.6,65l-7.7,4.7ZM803.9,675.6c9.6,3.3,18.2,8,25.8,14,19.8,15.6,30.9,38.7,40.6,59.1,5.4,11.3,12,25,18.2,38.8,41.7-25.2,88.6-52.4,140.2-62.4,30.2-5.8,61.3-4.5,88.7,3.5,2.4-44-22.4-91.5-61.5-116.1-39.4-24.7-92.3-29.9-141.5-13.9-8.8,2.8-17.5,6.3-26.1,10.4-30.6,14.7-59.6,37.6-84.4,66.6Z"></path>
  </g>
  <g>
    <path class="st2" d="M884.9,601.9c-37.1,17.8-69,45.5-94.7,78-8.1-1.7-16.5-2.4-24.8-2.1-21.1.8-41.7,7.7-60.5,17.3-4.4,2.2-8.6,4.6-12.8,7.2-15.8-20.9-36.3-38-45.6-63.2-12.4-33.7,7.8-58.3,31.5-79.8,16.3-14.8,33.6-28.7,52.3-40.4,18.3-11.4,42.6-23.8,64.8-18.3,13,3.2,22.5,12.6,30.4,23,20.5,27,39,51.4,59.5,78.3Z"></path>
    <path class="st4" d="M690.1,712.7l-4.3-5.7c-4.6-6.1-9.9-12.1-14.9-17.9-12.2-14-24.8-28.4-31.8-47.3-14.1-38.3,9.1-66.1,33.6-88.3,18.7-17,36.2-30.4,53.4-41.2,18.1-11.3,45.1-25.6,70.8-19.3,16.7,4.1,27.8,16.7,34.8,25.8,20.5,27,39,51.4,59.5,78.3l5.8,7.7-8.7,4.2c-33.8,16.2-65.6,42.4-92,75.8l-3,3.8-4.8-1c-7.4-1.6-15-2.2-22.9-1.9-18,.7-37.3,6.2-57.2,16.5-4.1,2.1-8.2,4.4-12.3,6.9l-6.1,3.7ZM783.8,507.2c-17.5,0-36.1,10.2-49.3,18.5-16.4,10.2-33.1,23.2-51.2,39.5-25,22.7-39.6,43.5-29.4,71.3,5.9,16.1,17.1,28.9,28.9,42.4,3.8,4.3,7.6,8.7,11.3,13.3,2.4-1.4,4.9-2.7,7.3-3.9,21.9-11.3,43.4-17.4,63.7-18.2,7.4-.3,14.8.2,21.9,1.4,25-30.7,54.5-55.5,86-72.2-18.3-24-35.2-46.4-53.8-70.8-8.8-11.6-16.9-17.8-26-20.1-3.1-.8-6.2-1.1-9.4-1.1Z"></path>
  </g>
  <g>
    <path class="st0" d="M742.7,845.6c9,44.6,31.1,86.5,62.8,119.1"></path>
    <path class="st4" d="M805.5,972.5c-2,0-4.1-.8-5.6-2.4-32.6-33.6-55.6-77.3-64.8-123-.9-4.2,1.9-8.4,6.1-9.2,4.2-.9,8.4,1.9,9.2,6.1,8.6,42.8,30.2,83.7,60.7,115.2,3,3.1,2.9,8.1-.2,11.1-1.5,1.5-3.5,2.2-5.5,2.2Z"></path>
  </g>
  <path class="st4" d="M941.2,1170.7c-3.3,0-6.6-.2-9.8-.5-17.6-1.6-33.5-7.9-45.9-18-20.9-17.1-32.9-45.9-32.2-77.2.6-24.9,8.9-51.6,24.7-79.2,14.5-25.5,32.9-48,54.6-66.9,22.4-19.5,47.2-34.1,73.6-43.4,55.5-19.6,117.5-14.2,165.7,14.3,18.1,10.7,34.5,24.7,48.8,41.6,2.8,3.3,2.4,8.3-.9,11-3.3,2.8-8.3,2.4-11-.9-13.2-15.6-28.2-28.4-44.8-38.2-44.3-26.2-101.4-31-152.6-13-48.5,17.1-92.1,54.7-119.8,103.3-14.5,25.4-22.1,49.6-22.6,71.8-.6,26.5,9.3,50.7,26.5,64.7,23.3,19,56.4,17.2,79.7,9.1,28.1-9.8,52.3-29,75.8-47.6,3.4-2.7,8.3-2.1,11,1.3,2.7,3.4,2.1,8.3-1.3,11-23.4,18.5-49.8,39.5-80.4,50.1-12.8,4.4-26.1,6.7-39,6.7Z"></path>
</svg><style>@media (prefers-color-scheme: light) { :root { filter: none; } }
@media (prefers-color-scheme: dark) { :root { filter: none; } }
</style></svg>